HIERARCHY
ROOT Hips
{
	OFFSET 0.000000 0.000000 0.000000 
	CHANNELS 6 Xposition Yposition Zposition Yrotation Zrotation Xrotation 
	JOINT Lumbar
	{
		OFFSET 0.000000 0.000000 0.000000 
		CHANNELS 3 Zrotation Xrotation Yrotation
		JOINT Neck
		{
			OFFSET 0.000000 0.445665 0.000000 
			CHANNELS 3 Zrotation Xrotation Yrotation
			End Site
			{
				OFFSET 0.000000 0.227535 0.000000 
			}
		}
		JOINT RightShoulder
		{
			OFFSET 0.019635 0.377685 0.194865 
			CHANNELS 3 Zrotation Xrotation Yrotation
			JOINT RightElbow
			{
				OFFSET 0.000000 -0.243375 0.000000 
				CHANNELS 2 Zrotation Yrotation
				JOINT RightWrist
				{
					OFFSET 0.000000 -0.264825 0.000000 
					CHANNELS 2 Zrotation Xrotation
					End Site
					{
						OFFSET 0.006600 -0.176220 0.000990 
					}
				}
			}
		}
		JOINT LeftShoulder
		{
			OFFSET 0.019635 0.377685 -0.194865 
			CHANNELS 3 Zrotation Xrotation Yrotation
			JOINT LeftElbow
			{
				OFFSET 0.000000 -0.243375 0.000000 
				CHANNELS 2 Zrotation Yrotation
				JOINT LeftWrist
				{
					OFFSET 0.000000 -0.264825 0.000000 
					CHANNELS 2 Zrotation Xrotation
					End Site
					{
						OFFSET 0.006600 -0.176220 -0.000990 
					}
				}
			}
		}
	}
	JOINT RightHip
	{
		OFFSET 0.052140 -0.069960 0.075570 
		CHANNELS 3 Zrotation Xrotation Yrotation
		JOINT RightKnee
		{
			OFFSET 0.000000 -0.402270 0.000000 
			CHANNELS 1 Zrotation
			JOINT RightAnkle
			{
				OFFSET 0.000000 -0.404085 0.000000 
				CHANNELS 3 Zrotation Xrotation Yrotation
				End Site
				{
					OFFSET 0.204105 -0.089430 0.008415 
				}
			}
		}
	}
	JOINT LeftHip
	{
		OFFSET 0.052140 -0.069960 -0.075570 
		CHANNELS 3 Zrotation Xrotation Yrotation
		JOINT LeftKnee
		{
			OFFSET 0.000000 -0.402270 0.000000 
			CHANNELS 1 Zrotation
			JOINT LeftAnkle
			{
				OFFSET 0.000000 -0.404085 0.000000 
				CHANNELS 3 Zrotation Xrotation Yrotation
				End Site
				{
					OFFSET 0.204105 -0.089430 -0.008415 
				}
			}
		}
	}
}
MOTION
Frames: 30
Frame Time: 0.02
-1.33566 -0.28358 0.51792 369.73005 -15.62839 -1.36049 38.85141 0.2291 7.25199 -21.25273 -0.61231 -2.11994 6.80094 -70.93973 14.66006 36.46634 87.87647 3.54218 0.65826 -39.71371 17.23473 9.89969 36.68592 -86.42222 1.74803 -1.12576 44.78986 -7.18321 0.58661 -63.17485 -12.87961 -2.15153 -3.58466 45.28354 4.05762 13.46104 -12.35123 -12.37257 2.4488 3.70879
-1.3265 -0.28053 0.51021 369.91569 -14.90445 -1.73856 38.26509 0.24477 6.10898 -21.60456 -0.34137 -2.11994 7.10167 -70.85738 16.88235 38.4096 86.70681 3.00046 0.36439 -37.95224 18.88041 8.27448 37.74284 -85.89581 0.83507 -2.17656 45.47235 -7.15913 -0.02999 -64.45693 -12.8757 -2.35972 -3.69134 44.65443 4.13716 12.97631 -14.42132 -11.81168 2.78216 3.85422
-1.31761 -0.27731 0.50326 370.21381 -14.24059 -2.24632 37.76473 0.2753 4.76301 -22.02013 0.15618 -2.11994 8.01215 -70.84681 20.10734 40.77697 86.3732 2.82932 0.12176 -36.06747 20.73828 6.48172 38.86456 -85.89732 0.17766 -3.52936 46.20517 -7.1046 -1.21445 -65.29148 -12.6302 -2.60933 -3.80801 44.08104 4.33031 13.48965 -16.41089 -11.50305 2.55031 3.71599
-1.30861 -0.27417 0.49602 370.4615 -13.56367 -2.69832 37.23604 0.303 3.49686 -22.39241 0.55214 -2.11994 8.72628 -70.78121 22.89373 42.95904 85.69267 2.52755 -0.13303 -34.27169 22.50364 4.79159 39.98903 -85.64379 -0.56278 -4.65982 46.91195 -7.04388 -2.11749 -66.23542 -12.50094 -2.83688 -3.91865 43.4906 4.4753 13.50988 -18.416 -11.07873 2.59132 3.71516
-1.29959 -0.27101 0.48857 370.71226 -12.81856 -3.14195 36.65206 0.31592 2.27381 -22.82894 0.94638 -2.11994 9.0977 -70.81607 25.60662 45.13199 84.81237 2.04818 -0.44295 -32.33539 24.25928 2.97827 41.00168 -85.43351 -1.45317 -6.14003 47.64072 -7.05931 -3.11243 -67.59805 -12.34708 -3.08025 -4.03678 42.86828 4.607 13.65809 -20.53019 -10.65375 2.58508 3.68864
-1.29066 -0.26787 0.48172 370.98033 -12.23379 -3.62995 36.20816 0.36213 0.91936 -23.14449 1.39388 -2.11994 10.32139 -70.65321 28.69612 47.40934 84.56516 2.0333 -0.62444 -30.65994 26.08278 1.38341 42.24811 -85.27249 -1.9637 -6.97423 48.33016 -6.91423 -4.05653 -67.9655 -12.187 -3.29886 -4.14086 42.32556 4.79139 13.79228 -22.39054 -10.29219 2.53516 3.64429
-1.28191 -0.26476 0.47633 371.27816 -12.06589 -4.23246 36.12185 0.50094 -0.78429 -23.12033 1.96477 -2.11994 13.83373 -69.96851 32.76407 49.95404 85.91799 3.21219 -0.44284 -29.77211 28.04167 0.46605 44.18783 -85.04137 -1.526 -5.86182 48.92554 -6.30693 -4.68196 -65.79828 -12.05936 -3.44894 -4.208 41.97518 5.11138 13.63676 -23.56626 -10.04212 2.50343 3.62077
-1.27324 -0.26169 0.47151 371.58748 -12.0605 -4.87026 36.1764 0.67177 -2.60499 -22.9698 2.57542 -2.11994 18.16587 -69.07531 37.14222 52.57108 87.87579 4.84556 -0.13629 -29.144 30.05911 -0.23001 46.34527 -84.85622 -0.70848 -4.10516 49.4739 -5.54466 -5.24405 -62.62477 -11.93636 -3.57057 -4.25974 41.70499 5.47699 13.43929 -24.48688 -9.84829 2.4442 3.5875
-1.26455 -0.25865 0.46644 371.884 -11.98884 -5.47598 36.17307 0.82489 -4.34837 -22.87037 3.14677 -2.11994 22.0719 -68.24863 41.26374 55.09937 89.53175 6.27549 0.10079 -28.37438 32.0507 -1.04694 48.3598 -84.70454 -0.03662 -2.70255 50.02505 -4.87194 -5.86183 -59.84093 -11.81525 -3.69862 -4.31554 41.40646 5.81031 13.27114 -25.52377 -9.63062 2.39441 3.55685
-1.25581 -0.2554 0.46136 372.21464 -11.88652 -6.15419 36.14654 0.99178 -6.20322 -22.80056 3.81535 -2.11994 26.23537 -67.53947 45.9187 57.88099 91.33809 7.71514 0.39321 -27.70289 34.05269 -1.78357 50.56601 -84.34841 0.5374 -1.05378 50.65571 -4.11852 -6.38724 -57.32345 -11.66347 -3.85592 -4.38399 41.0755 6.19723 13.09436 -26.55734 -9.4142 2.33843 3.52426
-1.24718 -0.2526 0.45643 372.47784 -11.88667 -6.68786 36.20089 1.13751 -7.84796 -22.63743 4.2883 -2.11994 30.03649 -66.54038 49.51006 60.14358 92.95317 9.22487 0.59921 -26.88603 36.03652 -2.63352 52.41943 -84.41357 1.39312 0.2417 51.10992 -3.4953 -7.08076 -54.02283 -11.58664 -3.94461 -4.42245 40.8307 6.48083 12.91201 -27.53755 -9.20553 2.29579 3.49691
-1.23886 -0.25103 0.45179 372.53177 -12.12342 -6.81504 36.44206 1.21581 -8.90871 -22.25408 4.20717 -2.11994 32.7427 -64.74729 50.19731 60.97626 93.98767 10.92598 0.53825 -25.64431 38.0185 -3.84009 53.28252 -85.70281 3.00942 0.38358 51.08027 -3.28402 -8.27383 -48.77116 -11.65766 -3.84648 -4.37647 40.80057 6.4767 12.72805 -28.43744 -9.00139 2.30107 3.48848
-1.23065 -0.24993 0.44728 372.52132 -12.45848 -6.7948 36.7595 1.27182 -9.74826 -21.77996 3.92773 -2.11994 35.03196 -62.6788 49.77886 61.27719 94.78856 12.65965 0.38564 -24.24243 39.96652 -5.16807 53.77682 -87.39802 4.88021 0.15294 50.87669 -3.20741 -9.63604 -42.77919 -11.81553 -3.6758 -4.29909 40.85434 6.36514 12.53472 -29.29161 -8.80255 2.32259 3.48663
-1.22236 -0.24863 0.44272 372.55212 -12.75281 -6.84031 37.04329 1.33876 -10.67182 -21.34237 3.74026 -2.11994 37.44077 -60.7636 49.78945 61.80664 95.62771 14.30519 0.27291 -22.88568 41.88901 -6.44814 54.41386 -88.85798 6.5842 0.10783 50.75679 -3.05878 -10.89948 -37.14554 -11.97346 -3.54737 -4.24298 40.87231 6.29605 12.33797 -30.16437 -8.60197 2.33673 3.48185
-1.21418 -0.24723 0.43818 372.52988 -13.0369 -6.89164 37.32881 1.40354 -11.66947 -20.91902 3.54526 -2.11994 40.17833 -58.7173 50.11879 62.39767 96.76864 16.27683 0.17088 -21.64657 43.9902 -7.6954 55.15906 -90.53563 8.51953 0.01672 50.61248 -2.94704 -12.23586 -31.36599 -11.96643 -3.39959 -4.16785 40.88499 6.2541 12.17128 -31.0386 -8.40029 2.34996 3.47646
-1.2058 -0.24617 0.4336 372.60626 -13.36265 -6.89629 37.62566 1.46699 -12.45852 -20.44776 3.31987 -2.11994 42.11575 -56.88776 49.521 62.72904 97.2257 17.57052 0.02462 -20.13119 45.70586 -9.03582 55.59411 -91.85375 10.02595 -0.07571 50.48238 -2.79669 -13.48342 -25.75042 -12.32116 -3.24916 -4.11118 40.92543 6.1312 11.9421 -31.90077 -8.20187 2.36884 3.47385
-1.19693 -0.24597 0.42885 372.9401 -13.78616 -6.79956 37.94585 1.53288 -12.72564 -19.8528 3.04537 -2.11994 41.98696 -55.66995 46.59861 62.50516 95.77628 16.98578 -0.2344 -17.8063 46.40258 -10.66362 55.21412 -92.09485 10.3055 -0.08099 50.39687 -2.47091 -14.24528 -20.57892 -13.67204 -3.34087 -4.23661 41.03953 5.79644 11.52494 -32.75457 -8.00657 2.4047 3.47964
-1.18785 -0.24609 0.42407 373.38116 -14.24617 -6.66228 38.27216 1.59791 -12.78955 -19.21611 2.74964 -2.11994 41.05473 -54.69064 42.78598 62.03062 93.65725 15.71558 -0.53296 -15.2253 46.70535 -12.37094 54.54294 -91.95724 10.13948 -0.07798 50.33704 -2.10873 -14.94332 -15.638 -15.37842 -3.39516 -4.36177 41.17492 5.38665 11.04863 -33.59642 -7.81501 2.44486 3.48765
-1.17883 -0.24603 0.41932 373.79303 -14.68414 -6.54903 38.58781 1.66271 -12.94627 -18.60786 2.47221 -2.11994 40.45996 -53.63914 39.40244 61.6514 91.89134 14.75513 -0.8055 -12.81441 47.16347 -14.00368 54.03578 -91.98251 10.16195 -0.08165 50.29234 -1.78803 -15.80903 -10.72187 -16.91268 -3.3073 -4.40229 41.28868 5.02027 10.61112 -34.4362 -7.62432 2.47979 3.4932
-1.16995 -0.24613 0.41448 374.11977 -15.14848 -6.40721 38.93916 1.72935 -13.09464 -17.95562 2.15069 -2.11994 39.97079 -52.42635 35.87788 61.33781 89.9129 13.80126 -1.11514 -10.16442 47.71975 -15.80267 53.38137 -92.05995 10.25069 -0.08526 50.13575 -1.36822 -16.11993 -5.2345 -18.50334 -3.86468 -4.78705 41.45609 4.60988 10.12292 -35.3064 -7.42262 2.52921 3.5051
-1.16072 -0.24596 0.40983 374.65061 -15.5655 -6.31693 39.21698 1.79224 -13.21345 -17.38723 1.91941 -2.11994 39.0727 -51.60816 32.44897 60.82788 88.21948 12.6733 -1.35569 -7.96229 47.97932 -17.27286 52.97021 -91.93475 10.09471 -0.0827 50.21136 -1.14249 -17.53802 -0.99858 -20.04879 -3.10048 -4.47088 41.51546 4.27598 9.7264 -36.11039 -7.24515 2.54914 3.5042
-1.15063 -0.24501 0.40565 375.71452 -15.84024 -6.38188 39.28667 1.84542 -13.31367 -17.05331 1.93623 -2.11994 37.27193 -51.83664 29.51731 59.89964 87.49205 11.20776 -1.39556 -6.98793 47.50768 -17.81221 53.29426 -91.3318 9.34963 -0.06069 51.00292 -1.47822 -22.29802 -0.19397 -21.47806 1.56542 -2.08334 41.27307 4.1614 9.59624 -36.74038 -7.12965 2.48784 3.46764
-1.14016 -0.24378 0.40167 376.98075 -16.06624 -6.5004 39.28261 1.89516 -13.38921 -16.80703 2.04698 -2.11994 35.08373 -52.45218 26.71675 58.77363 87.07362 9.59592 -1.36403 -6.4882 46.75234 -18.01689 53.87538 -90.53956 8.37727 -0.03196 52.01365 -2.00673 -28.12537 -0.63917 -22.83237 7.51165 0.98451 40.92078 4.12886 9.55987 -37.30328 -7.03921 2.39655 3.41812
-1.12981 -0.24265 0.39763 378.15808 -16.31563 -6.593 39.31407 1.94591 -13.46911 -16.52588 2.11958 -2.11994 33.05535 -52.88227 23.84991 57.69967 86.50394 8.06587 -1.36495 -5.8177 46.133 -18.37783 54.34707 -89.83695 7.52134 -0.00719 52.87101 -2.43546 -33.28432 -0.49442 -24.1564 12.69878 3.65103 40.61675 4.06595 9.48248 -37.89329 -6.93978 2.31794 3.37429
-1.11971 -0.24164 0.39343 379.32824 -16.56049 -6.69019 39.33664 1.99774 -13.57298 -16.22232 2.17129 -2.11994 31.06748 -53.3623 20.97377 56.77568 85.95332 6.44377 -1.3676 -4.94468 45.47172 -18.72847 54.78149 -89.0995 6.59143 0.02219 53.95366 -2.91456 -39.20708 -0.44804 -25.75999 18.63222 6.70481 40.31924 3.971 9.39959 -38.49721 -6.82999 2.24298 3.33115
-1.10898 -0.2403 0.38963 380.5575 -16.8035 -6.79176 39.36101 2.04802 -13.62093 -15.98676 2.29022 -2.11994 28.9135 -53.8253 18.16717 55.49652 85.44906 4.99204 -1.34878 -4.61432 44.83345 -19.01445 55.35295 -88.40292 5.77134 0.04261 54.62191 -3.33478 -43.80339 -0.49307 -26.76458 23.31898 9.11586 39.9835 3.96345 9.34703 -39.05628 -6.74817 2.15387 3.28376
-1.09663 -0.23814 0.3869 381.92072 -17.04553 -6.88682 39.39979 2.08227 -13.54498 -15.91913 2.56308 -2.11994 26.40373 -54.16058 15.4669 53.28056 84.96664 4.01117 -1.29119 -5.6285 44.34719 -19.24823 56.28809 -87.8017 5.27903 0.04342 54.0644 -3.54611 -44.38531 -0.46533 -26.08067 24.21302 9.56524 39.55376 4.17633 9.39158 -39.5095 -6.73354 2.02762 3.22529
-1.08364 -0.23564 0.38457 383.33154 -17.28797 -6.9856 39.44391 2.11757 -13.40964 -15.91734 2.90219 -2.11994 23.74404 -54.46061 12.84873 50.71691 84.52897 3.2165 -1.21367 -7.18138 43.89164 -19.41797 57.34411 -87.26661 4.9137 0.03275 53.0867 -3.69099 -43.61107 -0.48924 -24.80377 23.81521 9.3482 39.09189 4.47495 9.45726 -39.92022 -6.74711 1.88917 3.16348
-1.07092 -0.23326 0.38205 384.70747 -17.53596 -7.08663 39.49194 2.1605 -13.28705 -15.88399 3.21672 -2.11994 21.15011 -54.76769 10.23014 48.31576 84.09468 2.36372 -1.14308 -8.51293 43.41241 -19.58977 58.31558 -86.73897 4.5121 0.02419 52.32037 -3.86658 -43.51932 -0.50086 -23.83217 24.03254 9.44958 38.65495 4.73519 9.48937 -40.34872 -6.75011 1.75981 3.10483
-1.05828 -0.23101 0.37954 386.14885 -17.76075 -7.17323 39.51307 2.16857 -13.22542 -15.85857 3.51086 -2.11994 18.5468 -55.13037 7.4514 45.88553 83.572 1.39496 -1.07904 -9.75921 42.96686 -19.87159 59.42361 -86.02683 4.00939 0.03306 51.47823 -4.04895 -43.19187 -0.50808 -22.71029 24.17502 9.50868 38.17144 4.99553 9.62461 -40.77906 -6.74372 1.61439 3.03871
